# xmcd
#
# Track frame offsets: 
#        150
#        17719
#        40444
#        64471
#        86842
#        108706
#        129601
#        151364
#        170695
#        189170
#
# Disc length: 2783 seconds
#
# Revision: 5
# Processed by: cddbd v1.5.2PL0 Copyright (c) Steve Scherf et al.
# Submitted via: ExactAudioCopy v1.3
#
DISCID=8c0add0a
DTITLE=2Pac - Nu-Mixx Klazzics
DYEAR=2003
DGENRE=Hip-Hop
TTITLE0=2 Of Amerikaz Most Wanted (Nu-Mixx) (feat. Crooked I)
TTITLE1=How Do You Want It (Nu-Mixx) (feat. K-Ci and JoJo)
TTITLE2=Hail Mary (Nu-Mixx) (feat. The Outlawz)
TTITLE3=Life Goes On (Nu-Mixx)
TTITLE4=All Eyez On Me (Nu-Mixx) (feat. Big Syke)
TTITLE5=Heartz Of Men (Nu-Mixx)
TTITLE6=Toss It Up (Nu-Mixx) (feat. Danny Boy, Aaron Hall and K-Ci and JoJ
TTITLE6=o)
TTITLE7=Hit 'Em Up (Nu-Mixx) (feat. The Outlawz)
TTITLE8=Never Had A Friend Like Me (Nu-Mixx)
TTITLE9=Ambitionz Az A Ridah (Nu-Mixx)
EXTD=
EXTT0=
EXTT1=
EXTT2=
EXTT3=
EXTT4=
EXTT5=
EXTT6=
EXTT7=
EXTT8=
EXTT9=
PLAYORDER=
